<svg version="1.0" xmlns="http://www.w3.org/2000/svg" width="1200.000000ptpx" height="799.000000ptpx" viewBox="0 0 1200.000000 799.000000" preserveAspectRatio="xMidYMid meet" transform="rotate(0) scale(1, 1)">

<g transform="translate(0.000000,799.000000) scale(0.100000,-0.100000)" fill="#ffd000" stroke="none">
<path d="M3 7935 c0 -33 2 -45 4 -27 2 18 2 45 0 60 -2 15 -4 0 -4 -33z"/>
<path d="M1948 7329 c-77 -12 -150 -36 -208 -71 -55 -33 -73 -54 -355 -388&#10;-442 -526 -530 -623 -557 -615 -11 4 -18 1 -18 -7 0 -9 -15 -13 -47 -14 -194&#10;-3 -283 -8 -283 -15 0 -13 -77 -11 -100 3 -17 11 -22 9 -36 -10 -11 -16 -19&#10;-20 -28 -13 -16 14 -65 -21 -96 -68 -18 -27 -20 -38 -11 -53 9 -14 7 -19 -8&#10;-28 -27 -14 -41 -13 -41 5 0 11 -11 15 -40 15 -22 0 -40 5 -40 10 0 6 -8 5&#10;-20 -2 -11 -7 -20 -21 -20 -30 0 -10 -4 -18 -10 -18 -5 0 -10 9 -10 19 0 11&#10;-4 23 -10 26 -7 4 -10 -1002 -10 -3009 l0 -3016 1763 -3 1762 -2 -1762 -3&#10;c-1559 -2 -1763 -4 -1763 -17 0 -13 37 -15 273 -14 149 0 293 4 319 8 26 4 45&#10;4 42 -1 -8 -13 2260 -10 2273 3 8 8 13 8 17 0 5 -7 54 -10 144 -9 129 2 132 2&#10;52 8 l-85 6 98 2 c58 1 96 -2 92 -7 -5 -9 202 -14 605 -13 316 0 307 0 313 21&#10;3 12 -3 23 -17 30 -12 7 -27 29 -33 49 -11 33 -10 39 8 53 15 11 19 22 14 42&#10;-5 18 -3 27 4 27 8 0 7 8 -3 22 -20 29 -20 67 -1 89 15 15 14 20 -4 52 -17 30&#10;-18 43 -11 103 5 38 7 84 4 102 -4 17 -2 32 2 32 5 0 8 82 6 182 -2 101 -3&#10;194 -2 208 4 63 3 228 -1 255 -3 24 -1 29 14 27 21 -4 23 16 1 25 -13 5 -15&#10;15 -9 51 5 32 3 47 -6 53 -11 6 -10 15 4 43 10 22 12 36 6 36 -7 0 -9 29 -6&#10;87 3 48 2 94 -2 103 -4 8 -4 35 1 59 9 40 11 43 39 39 26 -4 29 -2 29 23 0 15&#10;-6 30 -12 32 -10 4 -10 8 1 15 19 13 -3 52 -30 52 -17 0 -20 5 -17 32 3 28 11&#10;36 63 63 53 27 61 35 65 65 4 26 10 36 26 38 18 3 21 -1 17 -22 l-5 -24 94 1&#10;c127 1 172 -21 223 -113 19 -34 19 -57 17 -729 -2 -539 -5 -697 -15 -703 -9&#10;-6 -7 -11 6 -19 17 -10 18 -28 18 -207 -1 -255 1 -282 16 -282 7 0 13 -4 13&#10;-10 0 -6 117 -8 338 -5 185 2 357 4 382 4 33 1 41 3 30 11 -12 8 -11 10 8 10&#10;12 0 22 -4 22 -10 0 -7 153 -9 443 -8 354 2 399 4 227 8 -208 5 -205 6 95 6&#10;171 0 283 -2 250 -6 -59 -7 -59 -7 25 -8 60 0 79 2 65 9 -14 6 11 8 75 5 59&#10;-2 80 -1 55 4 l-40 7 35 3 35 2 -40 9 c-22 4 -74 7 -115 7 l-75 -2 85 -6 c47&#10;-3 -198 -6 -545 -6 l-630 1 515 5 c348 4 431 6 255 8 -146 1 -254 6 -247 11 8&#10;4 13 14 12 22 -7 50 -1 59 41 59 36 0 40 -2 37 -22 -2 -19 -9 -23 -35 -22 -18&#10;0 -30 -2 -28 -6 2 -3 34 -6 72 -5 67 0 68 1 71 28 3 27 4 27 83 27 78 0 79 0&#10;79 -25 0 -22 4 -25 40 -25 37 0 40 2 40 28 l1 27 15 -27 c18 -35 31 -35 46 -3&#10;l11 25 164 0 163 0 0 40 0 40 40 0 40 0 0 40 c0 30 -4 40 -16 40 -14 0 -15 2&#10;-3 17 13 15 14 15 17 0 3 -15 28 -17 243 -17 206 0 239 2 239 15 0 13 24 15&#10;160 15 l160 0 0 25 c0 23 4 25 40 25 36 0 40 -2 40 -25 0 -22 4 -25 40 -25 36&#10;0 40 3 40 25 0 23 4 25 40 25 29 0 40 4 40 15 0 11 11 15 40 15 38 0 40 -2 40&#10;-30 0 -28 2 -30 40 -30 38 0 40 2 40 30 0 28 2 30 40 30 36 0 40 3 40 25 l0&#10;25 200 0 200 0 0 40 0 40 40 0 c36 0 40 -2 40 -25 0 -25 1 -25 80 -25 79 0 80&#10;0 80 25 0 25 1 25 80 25 79 0 80 0 80 -25 0 -25 1 -25 80 -25 l80 0 0 65 0 65&#10;40 0 40 0 0 -40 0 -40 40 0 c29 0 40 4 40 15 0 11 11 15 40 15 36 0 40 3 40&#10;25 0 25 1 25 80 25 l80 0 0 -70 c0 -69 18 -150 32 -150 5 0 8 32 8 70 0 56 -3&#10;70 -15 70 -10 0 -15 10 -15 28 0 19 3 23 9 13 5 -7 14 -10 20 -7 8 5 11 -22&#10;11 -93 0 -61 -4 -101 -10 -101 -5 0 -10 -18 -10 -41 0 -24 4 -38 10 -34 10 6&#10;12 -15 14 -192 1 -56 3 -103 6 -106 5 -5 341 -11 431 -8 l46 1 -4 299 -5 298&#10;30 35 c17 19 34 46 37 60 8 33 65 47 65 16 0 -10 7 -18 15 -18 8 0 15 8 15 18&#10;0 13 2 14 9 3 5 -7 14 -10 20 -6 7 4 34 4 61 0 43 -6 54 -12 78 -46 17 -25 35&#10;-39 50 -39 21 0 22 -4 22 -80 0 -64 3 -80 15 -80 9 0 15 9 15 25 0 23 4 25 40&#10;25 29 0 40 4 40 15 0 11 -11 15 -40 15 l-40 0 0 40 0 40 63 1 c48 1 57 3 37&#10;10 -20 7 -18 7 10 3 19 -3 67 -6 105 -6 39 -1 60 -3 48 -5 -16 -3 -23 -11 -23&#10;-29 0 -21 4 -24 40 -24 36 0 40 2 40 26 0 21 4 25 20 21 11 -3 18 -1 14 4 -3&#10;5 2 9 10 9 9 0 16 -4 16 -9 0 -5 10 -7 23 -4 16 3 18 2 8 -5 -22 -16 26 -58&#10;74 -65 27 -5 35 -3 25 3 -8 5 -28 10 -45 10 -29 1 -29 2 -6 11 28 11 110 -9&#10;89 -23 -10 -6 -10 -8 0 -8 6 0 12 -7 12 -15 0 -11 11 -15 40 -15 29 0 40 4 40&#10;15 0 8 -6 15 -12 15 -9 0 -8 4 2 10 14 9 63 5 84 -8 6 -3 21 -7 35 -9 15 -2&#10;34 -4 43 -5 9 -1 14 -6 11 -11 -3 -5 3 -7 13 -3 11 3 53 -3 94 -13 41 -11 66&#10;-20 55 -20 -11 -1 -35 3 -53 8 -20 6 -32 6 -32 0 0 -5 -8 -9 -17 -10 -16 0&#10;-16 -1 1 -8 11 -4 45 -6 75 -3 31 2 61 4 66 4 6 1 21 -2 35 -6 l25 -7 -25 15&#10;-25 15 23 1 c13 0 33 5 44 11 12 7 59 11 109 10 86 -2 87 -2 93 25 4 14 4 57&#10;0 95 l-7 69 42 0 c37 0 41 -2 41 -25 0 -22 4 -25 40 -25 36 0 40 3 40 25 0 23&#10;4 25 40 25 l40 0 0 40 0 40 40 0 40 0 0 2101 c0 1397 -3 2098 -10 2094 -5 -3&#10;-10 -13 -10 -21 0 -23 -37 -16 -45 9 l-8 22 -4 -22 c-4 -19 -11 -23 -44 -23&#10;-28 0 -39 -4 -39 -15 0 -11 -11 -15 -40 -15 -22 0 -40 -4 -40 -10 0 -6 -33&#10;-10 -80 -10 l-80 0 0 -30 c0 -28 -2 -30 -40 -30 -36 0 -40 -2 -40 -25 0 -19&#10;-5 -25 -22 -25 -12 0 -30 -7 -40 -17 -17 -15 -18 -14 -18 15 0 31 -1 32 -44&#10;32 -26 0 -48 -6 -56 -15 -9 -10 -32 -15 -76 -15 -50 0 -64 -3 -64 -15 0 -11&#10;-11 -15 -40 -15 -22 0 -40 -4 -40 -10 0 -5 -18 -10 -40 -10 -29 0 -40 -4 -40&#10;-15 0 -13 -24 -15 -159 -15 l-160 0 -3 -27 -4 -28 -14 28 c-17 34 -24 34 -40&#10;0 -7 -16 -15 -23 -17 -15 -4 9 -54 12 -204 12 -170 0 -199 2 -199 15 0 11 -11&#10;15 -40 15 -24 0 -40 5 -40 12 0 9 -3 9 -12 0 -8 -8 -49 -12 -120 -12 -93 0&#10;-108 2 -108 16 0 14 -9 16 -50 12 -35 -4 -53 -1 -61 8 -15 19 -45 18 -53 -1&#10;-3 -9 -19 -15 -41 -15 -33 0 -35 -2 -35 -33 0 -70 -75 -91 -129 -36 -35 34&#10;-39 49 -15 49 13 0 14 3 4 14 -13 17 -57 6 -52 -13 1 -6 -4 -12 -10 -12 -24&#10;-2 -33 -5 -63 -18 -73 -33 -95 -47 -101 -63 -3 -9 -28 -24 -57 -34 -56 -18&#10;-68 -29 -60 -52 4 -8 -4 -22 -18 -33 -19 -15 -21 -21 -10 -28 11 -7 9 -11 -8&#10;-21 -21 -11 -21 -13 -6 -36 8 -13 11 -24 5 -24 -5 0 -10 5 -10 10 0 6 -6 10&#10;-14 10 -18 0 -173 59 -257 98 -35 16 -95 42 -134 57 -38 15 -78 33 -90 40 -11&#10;7 -36 16 -55 20 -19 4 -37 11 -40 14 -3 4 -30 18 -60 30 -30 13 -78 34 -107&#10;47 -28 13 -54 24 -57 24 -4 0 -25 8 -49 18 -23 11 -91 38 -152 62 -60 24 -213&#10;86 -340 138 -126 52 -288 118 -360 147 -150 60 -499 206 -785 328 -58 25 -188&#10;80 -290 122 -102 42 -268 112 -370 155 -102 43 -225 95 -275 115 -187 77 -254&#10;104 -385 159 -74 31 -144 61 -155 66 -11 5 -76 32 -145 61 -184 76 -338 140&#10;-490 204 -74 31 -171 72 -215 90 -44 19 -134 57 -200 85 -66 28 -154 64 -195&#10;80 -41 16 -109 43 -150 60 -140 60 -315 132 -404 166 -50 19 -113 45 -140 59&#10;-28 13 -96 43 -151 66 -55 22 -113 47 -130 54 -32 15 -163 68 -280 115 -38 15&#10;-113 47 -165 70 -347 154 -450 185 -562 169z m294 -383 c46 -19 299 -122 563&#10;-229 264 -107 548 -223 630 -257 83 -34 249 -101 370 -150 121 -48 317 -127&#10;435 -175 118 -48 352 -143 520 -210 168 -68 406 -165 530 -216 124 -50 257&#10;-104 295 -119 63 -25 223 -91 575 -235 63 -26 196 -80 295 -120 99 -40 295&#10;-120 435 -178 140 -57 431 -175 645 -260 215 -86 480 -193 590 -237 110 -45&#10;283 -116 385 -157 102 -41 322 -131 490 -198 168 -68 429 -174 580 -235 151&#10;-62 385 -156 520 -210 135 -54 328 -133 430 -175 102 -42 235 -96 295 -120 61&#10;-24 226 -90 368 -147 l259 -103 -6 -1020 c-8 -1263 -12 -1465 -34 -1465 -13 0&#10;-2384 593 -2976 745 -116 29 -535 135 -931 235 -762 192 -1306 329 -1725 436&#10;-140 36 -412 105 -605 154 -192 49 -557 141 -810 205 -253 65 -548 139 -655&#10;167 -107 27 -319 81 -470 119 -151 39 -444 113 -650 164 -206 52 -393 103&#10;-415 114 -102 48 -156 122 -343 471 -19 36 -60 112 -92 170 -31 58 -76 141&#10;-100 185 -23 44 -50 94 -60 110 -10 17 -34 62 -55 100 -21 39 -64 117 -95 175&#10;-31 58 -75 139 -97 180 -23 41 -54 100 -71 130 -182 334 -257 471 -287 521&#10;-19 33 -35 63 -35 66 0 3 -25 50 -56 105 -47 84 -57 111 -61 162 l-5 61 52 65&#10;c29 36 67 83 85 105 114 139 198 244 344 425 245 304 662 812 686 834 61 56&#10;140 60 257 12z m7538 -2221 c10 -12 10 -15 -4 -15 -9 0 -16 7 -16 15 0 8 2 15&#10;4 15 2 0 9 -7 16 -15z m-8280 -1365 c0 -5 -5 -10 -11 -10 -5 0 -7 5 -4 10 3 6&#10;8 10 11 10 2 0 4 -4 4 -10z m50 -67 c16 -26 44 -76 62 -109 28 -54 30 -63 17&#10;-76 -25 -25 -82 -50 -134 -59 -27 -5 -51 -13 -53 -19 -2 -5 -21 -10 -43 -10&#10;-25 0 -39 -5 -39 -13 0 -7 -13 -13 -29 -13 -40 -2 -151 -46 -151 -60 0 -7 -13&#10;-26 -30 -44 -16 -18 -30 -35 -30 -39 0 -14 -59 -41 -77 -34 -37 13 -93 58 -93&#10;75 0 21 -29 38 -64 38 -14 0 -26 5 -26 10 0 6 -6 10 -14 10 -9 0 -16 17 -21&#10;50 l-7 50 -49 6 c-27 4 -49 10 -49 15 0 5 -6 9 -13 9 -12 0 -47 49 -47 67 0&#10;16 66 82 94 92 15 6 53 11 84 10 32 0 73 6 94 15 51 22 94 20 118 -4 24 -24&#10;70 -27 70 -5 0 13 21 15 125 15 69 0 128 1 133 2 10 3 30 19 54 44 11 11 36&#10;21 54 22 30 2 37 -2 64 -45z m2606 -1394 c3 -6 1 -16 -5 -22 -6 -6 -11 -21&#10;-11 -33 0 -27 -17 -41 -32 -26 -6 6 -6 12 1 16 6 4 11 23 11 42 0 34 21 47 36&#10;23z m-579 -1141 c-3 -7 -5 -2 -5 12 0 14 2 19 5 13 2 -7 2 -19 0 -25z m5910&#10;-50 c-2 -18 -4 -6 -4 27 0 33 2 48 4 33 2 -15 2 -42 0 -60z m2110 15 c-3 -10&#10;-5 -2 -5 17 0 19 2 27 5 18 2 -10 2 -26 0 -35z m-20 -15 c-2 -13 -4 -5 -4 17&#10;-1 22 1 32 4 23 2 -10 2 -28 0 -40z m-1224 25 c-7 -2 -19 -2 -25 0 -7 3 -2 5&#10;12 5 14 0 19 -2 13 -5z m52 -13 c8 -13 -5 -13 -25 0 -13 8 -13 10 2 10 9 0 20&#10;-4 23 -10z m102 -26 c-3 -3 -12 -4 -19 -1 -8 3 -5 6 6 6 11 1 17 -2 13 -5z&#10;m67 -26 c-12 -5 -7 -6 18 -3 20 3 39 2 41 -2 3 -4 -11 -8 -31 -7 -62 1 -65 2&#10;-50 18 7 7 19 11 27 8 11 -4 10 -7 -5 -14z m-70 4 c3 -5 -1 -9 -9 -9 -8 0 -15&#10;4 -15 9 0 4 4 8 9 8 6 0 12 -4 15 -8z m1114 -48 c29 -2 33 -5 26 -16 -6 -10&#10;-4 -10 7 0 21 20 29 14 29 -23 l0 -35 -55 0 c-34 0 -55 4 -55 11 0 8 -6 7 -16&#10;-2 -15 -12 -16 -11 -9 11 10 33 25 49 25 26 0 -9 5 -14 10 -11 6 3 11 27 11&#10;53 1 39 3 42 8 17 3 -16 12 -30 19 -31z m-2154 21 c3 -8 1 -15 -4 -15 -6 0&#10;-10 7 -10 15 0 8 2 15 4 15 2 0 6 -7 10 -15z m1223 9 c-3 -3 -12 -4 -19 -1 -8&#10;3 -5 6 6 6 11 1 17 -2 13 -5z m893 -9 c0 -8 -4 -15 -10 -15 -5 0 -7 7 -4 15 4&#10;8 8 15 10 15 2 0 4 -7 4 -15z m-853 -1 c-3 -3 -12 -4 -19 -1 -8 3 -5 6 6 6 11&#10;1 17 -2 13 -5z m258 -58 c46 -17 27 -21 -25 -5 -19 6 -57 14 -85 19 l-50 9 60&#10;-4 c33 -2 78 -11 100 -19z m-3065 -91 c0 -20 -5 -25 -25 -25 -29 0 -31 7 -8&#10;32 22 25 33 23 33 -7z m-4353 -312 c-3 -10 -5 -2 -5 17 0 19 2 27 5 18 2 -10&#10;2 -26 0 -35z m-1757 -23 c0 -5 -4 -10 -10 -10 -5 0 -10 5 -10 10 0 6 5 10 10&#10;10 6 0 10 -4 10 -10z m-1018 -9 c-22 -14 11 -21 94 -21 l74 0 0 -30 c0 -28 2&#10;-30 39 -30 37 0 40 2 39 29 -1 41 7 49 44 44 18 -3 70 -7 116 -10 62 -3 82 -8&#10;82 -19 0 -10 12 -14 40 -14 29 0 40 -4 40 -15 0 -12 27 -15 163 -17 89 -2&#10;-151 -3 -533 -3 -382 0 -600 1 -484 3 l211 2 1 30 c4 60 3 60 46 60 26 0 36&#10;-3 28 -9z m-732 -58 c0 -7 0 -16 0 -20 0 -19 -23 -6 -25 13 -1 11 5 21 12 21&#10;7 0 13 -6 13 -14z m2019 1 c2 -2 -33 -4 -78 -4 -45 0 -80 4 -77 9 5 8 146 4&#10;155 -5z m626 -28 c11 -2 -180 -3 -425 -3 -256 1 -375 4 -280 7 162 5 666 2&#10;705 -4z m-2487 -3 c-27 -2 -69 -2 -96 0 -26 2 -4 3 48 3 52 0 74 -1 48 -3z&#10;m2705 0 c-24 -2 -62 -2 -85 0 -24 2 -5 4 42 4 47 0 66 -2 43 -4z m480 0 c-68&#10;-2 -178 -2 -245 0 -68 1 -13 3 122 3 135 0 190 -2 123 -3z m2365 0 c-54 -2&#10;-142 -2 -195 0 -54 1 -10 3 97 3 107 0 151 -2 98 -3z m-5640 -40 c-21 -2 -55&#10;-2 -75 0 -21 2 -4 4 37 4 41 0 58 -2 38 -4z m139 1 c-3 -3 -12 -4 -19 -1 -8 3&#10;-5 6 6 6 11 1 17 -2 13 -5z m50 0 c-3 -3 -12 -4 -19 -1 -8 3 -5 6 6 6 11 1 17&#10;-2 13 -5z m586 -1 c-35 -2 -91 -2 -125 0 -35 2 -7 3 62 3 69 0 97 -1 63 -3z&#10;m360 0 c-13 -2 -33 -2 -45 0 -13 2 -3 4 22 4 25 0 35 -2 23 -4z m540 0 c-24&#10;-2 -62 -2 -85 0 -24 2 -5 4 42 4 47 0 66 -2 43 -4z m180 0 c-13 -2 -33 -2 -45&#10;0 -13 2 -3 4 22 4 25 0 35 -2 23 -4z m320 0 c-13 -2 -33 -2 -45 0 -13 2 -3 4&#10;22 4 25 0 35 -2 23 -4z m160 0 c-13 -2 -33 -2 -45 0 -13 2 -3 4 22 4 25 0 35&#10;-2 23 -4z m310 0 c-7 -2 -19 -2 -25 0 -7 3 -2 5 12 5 14 0 19 -2 13 -5z m2740&#10;0 c-7 -2 -19 -2 -25 0 -7 3 -2 5 12 5 14 0 19 -2 13 -5z m285 0 c-38 -2 -98&#10;-2 -135 0 -38 2 -7 3 67 3 74 0 105 -1 68 -3z"/>
<path d="M2040 6429 c-140 -188 -263 -350 -272 -362 -19 -24 -292 -388 -395&#10;-527 -35 -47 -84 -112 -109 -144 l-47 -59 51 -101 c64 -126 286 -560 416 -811&#10;54 -104 150 -291 214 -415 63 -124 136 -265 162 -315 26 -49 96 -185 155 -302&#10;97 -190 111 -213 139 -222 56 -18 456 -121 470 -121 9 0 -4 35 -39 103 -76&#10;149 -684 1353 -857 1697 -129 255 -147 298 -137 315 17 29 242 328 256 340 6&#10;6 71 93 143 195 73 102 156 217 185 255 148 199 426 585 431 599 7 17 9 16&#10;-131 70 -49 19 -154 59 -232 90 -78 31 -143 56 -145 56 -2 -1 -118 -154 -258&#10;-341z"/>
<path d="M3210 4701 l0 -1418 138 -37 c150 -40 264 -71 747 -201 430 -116 935&#10;-241 1036 -256 111 -16 277 -7 353 20 160 57 276 187 321 359 22 82 19 242 -5&#10;327 -59 212 -222 419 -447 568 -35 23 -63 44 -63 47 0 3 28 11 62 17 233 44&#10;364 239 329 488 -31 221 -181 457 -407 637 -154 123 -362 223 -869 417 -60 24&#10;-186 72 -280 108 -532 204 -899 343 -907 343 -5 0 -8 -638 -8 -1419z m1200&#10;519 c366 -134 405 -150 482 -196 171 -104 267 -287 228 -434 -24 -92 -91 -133&#10;-215 -132 -100 0 -111 3 -607 170 l-408 137 0 316 c0 173 2 318 5 321 3 3 54&#10;-12 113 -34 59 -22 240 -88 402 -148z m-260 -995 c619 -191 803 -266 920 -373&#10;115 -105 166 -222 158 -357 -13 -190 -145 -260 -389 -205 -68 15 -599 164&#10;-899 253 l-45 13 -3 364 c-1 201 0 370 2 377 3 8 31 2 93 -19 48 -16 122 -40&#10;163 -53z"/>
<path d="M6270 3361 l0 -899 33 -11 c43 -13 451 -121 459 -121 3 0 8 217 11&#10;483 6 532 12 598 67 707 42 83 77 105 165 105 85 0 154 -29 251 -105 l64 -50&#10;14 32 c7 18 39 93 71 167 l57 134 -43 38 c-59 52 -182 124 -254 151 -43 16&#10;-83 22 -140 23 -71 0 -86 -3 -130 -29 -27 -17 -74 -53 -102 -82 -29 -29 -55&#10;-49 -57 -46 -2 4 -4 58 -4 121 0 62 -4 117 -9 122 -8 8 -431 159 -445 159 -4&#10;0 -8 -405 -8 -899z"/>
<path d="M9340 3586 l0 -183 173 -63 c94 -35 178 -65 185 -68 10 -3 12 34 10&#10;179 l-3 183 -55 23 c-104 43 -291 113 -300 113 -6 0 -10 -72 -10 -184z"/>
<path d="M7867 3650 c-98 -25 -182 -95 -228 -191 -39 -79 -41 -93 -21 -105 39&#10;-25 361 -184 371 -184 6 0 11 5 11 12 0 25 47 79 86 98 53 26 86 25 186 -6&#10;206 -65 281 -142 295 -301 5 -67 5 -71 -17 -78 -25 -8 -172 0 -307 16 -298 35&#10;-438 30 -533 -19 -131 -68 -187 -231 -149 -438 28 -151 162 -335 312 -428 141&#10;-87 326 -132 469 -115 68 8 172 46 221 81 16 11 30 19 32 17 1 -2 14 -44 27&#10;-94 24 -87 25 -90 61 -102 31 -11 342 -93 350 -93 2 0 -11 44 -29 97 -48 149&#10;-55 247 -52 719 3 462 -1 502 -61 629 -34 73 -137 187 -227 251 -64 46 -204&#10;116 -321 159 -174 66 -382 98 -476 75z m622 -1026 l84 -7 -6 -131 c-6 -150&#10;-21 -200 -73 -246 -45 -39 -132 -64 -200 -57 -162 17 -304 159 -304 305 0 70&#10;21 109 73 133 38 18 57 20 192 15 83 -3 188 -9 234 -12z"/>
<path d="M9340 2407 l0 -772 178 -48 c97 -26 180 -48 185 -47 4 0 7 341 7 758&#10;l0 757 -178 63 c-98 34 -182 62 -185 62 -4 0 -7 -348 -7 -773z"/>
<path d="M10080 2177 l0 -742 163 -43 c89 -23 165 -42 170 -42 4 0 7 192 7&#10;428 0 451 5 526 40 598 40 82 152 119 244 80 69 -29 140 -110 167 -192 9 -28&#10;14 -174 18 -544 l6 -504 30 -8 c17 -4 85 -23 153 -42 l123 -34 -3 552 c-5 611&#10;-4 600 -73 743 -88 180 -313 316 -493 300 -75 -7 -136 -36 -191 -88 -21 -21&#10;-42 -35 -45 -32 -3 4 -6 52 -6 107 l0 101 -148 53 c-81 29 -150 52 -154 52 -5&#10;0 -8 -334 -8 -743z"/>
<path d="M9502 4793 c-12 -2 -20 -9 -17 -14 9 -14 32 -11 39 6 3 8 4 14 3 14&#10;-1 -1 -12 -4 -25 -6z"/>
<path d="M4154 1989 c-10 -16 41 -20 81 -6 l40 15 -58 0 c-31 -1 -60 -4 -63&#10;-9z"/>
<path d="M4145 1770 c-3 -5 1 -13 10 -16 22 -9 29 1 11 15 -10 8 -16 9 -21 1z"/>
<path d="M4215 1620 c3 -5 10 -10 16 -10 5 0 9 5 9 10 0 6 -7 10 -16 10 -8 0&#10;-12 -4 -9 -10z"/>
<path d="M4190 1120 c0 -5 5 -10 10 -10 6 0 10 5 10 10 0 6 -4 10 -10 10 -5 0&#10;-10 -4 -10 -10z"/>
<path d="M11753 590 c0 -25 2 -35 4 -22 2 12 2 32 0 45 -2 12 -4 2 -4 -23z"/>
<path d="M11048 553 c7 -3 16 -2 19 1 4 3 -2 6 -13 5 -11 0 -14 -3 -6 -6z"/>
<path d="M11148 513 c6 -2 18 -2 25 0 6 3 1 5 -13 5 -14 0 -19 -2 -12 -5z"/>
<path d="M10973 503 c9 -2 23 -2 30 0 6 3 -1 5 -18 5 -16 0 -22 -2 -12 -5z"/>
<path d="M11238 503 c7 -3 16 -2 19 1 4 3 -2 6 -13 5 -11 0 -14 -3 -6 -6z"/>
<path d="M11475 490 c-3 -5 -2 -10 4 -10 5 0 18 -3 28 -7 17 -6 17 -6 1 10&#10;-19 20 -24 21 -33 7z"/>
<path d="M8670 460 c0 -5 5 -10 10 -10 6 0 10 5 10 10 0 6 -4 10 -10 10 -5 0&#10;-10 -4 -10 -10z"/>
<path d="M8800 455 c0 -11 11 -15 40 -15 29 0 40 4 40 15 0 11 -11 15 -40 15&#10;-29 0 -40 -4 -40 -15z"/>
<path d="M8960 455 c0 -11 11 -15 40 -15 29 0 40 4 40 15 0 11 -11 15 -40 15&#10;-29 0 -40 -4 -40 -15z"/>
<path d="M8400 375 c0 -11 11 -15 40 -15 29 0 40 4 40 15 0 11 -11 15 -40 15&#10;-29 0 -40 -4 -40 -15z"/>
<path d="M8800 370 c0 -22 25 -18 34 6 3 9 -1 14 -14 14 -13 0 -20 -7 -20 -20z"/>
<path d="M9453 270 c0 -16 4 -30 9 -30 4 0 8 14 8 30 0 17 -4 30 -8 30 -5 0&#10;-9 -13 -9 -30z"/>
<path d="M6960 205 c0 -22 4 -25 40 -25 36 0 40 3 40 25 0 23 -4 25 -40 25&#10;-36 0 -40 -2 -40 -25z"/>
<path d="M6935 140 c3 -5 10 -10 16 -10 5 0 9 5 9 10 0 6 -7 10 -16 10 -8 0&#10;-12 -4 -9 -10z"/>
<path d="M7848 43 c6 -2 18 -2 25 0 6 3 1 5 -13 5 -14 0 -19 -2 -12 -5z"/>
<path d="M7885 30 c-22 -4 12 -5 75 -2 63 3 117 6 119 8 7 7 -152 1 -194 -6z"/>
<path d="M8338 33 c12 -2 32 -2 45 0 12 2 2 4 -23 4 -25 0 -35 -2 -22 -4z"/>
<path d="M8988 33 c6 -2 18 -2 25 0 6 3 1 5 -13 5 -14 0 -19 -2 -12 -5z"/>
<path d="M6343 13 c9 -2 25 -2 35 0 9 3 1 5 -18 5 -19 0 -27 -2 -17 -5z"/>
</g>
</svg>